<svg width="28" height="28" viewBox="0 0 28 28" fill="none" xmlns="http://www.w3.org/2000/svg">
  <path d="M5.72535 10L4.01487 19.3671L4.94138 20.4177L8.27919 19.8354L10.0728 10H13.9333L11.4388 23.6962H8.52864L8.16041 22.3418L2.81516 24L0 20.2658L1.8649 10H5.72535Z" fill="black"/>
  <path d="M15.6228 23.6962L15.8128 20.7089H21.7758L22.2509 20.3418L22.3816 19.5823L17.0601 15L17.4402 12.8607L19.9465 10H28L27.8099 12.9873H21.9777L21.5144 13.3544L21.3719 14.1139L26.6577 18.6962L26.2658 20.8354L23.7594 23.6962H15.6228Z" fill="black"/>
  <path d="M7 5.95958L7.54845 4.84697L8.65631 5.3667L8.80256 4H9.92139L9.57038 5.36285L10.8611 4.84697L11 5.95958L9.6947 6.27911L10.3455 7.31088L9.31444 8L8.84278 6.82194L7.93236 8L7.15722 7.31088L8.1883 6.27911L7 5.95958Z" fill="black"/>

  <style>
    path {
      fill: black;
    }

    @media (prefers-color-scheme: dark) {
      path {
        fill: white;
      }
    }
  </style>
</svg>
